<svg xmlns="http://www.w3.org/2000/svg" xmlns:xlink="http://www.w3.org/1999/xlink" width="94" height="93" viewBox="0 0 94 93">
  <defs>
    <filter id="Ellipse_1" x="0" y="0" width="94" height="93" filterUnits="userSpaceOnUse">
      <feOffset dy="3" input="SourceAlpha"/>
      <feGaussianBlur stdDeviation="3" result="blur"/>
      <feFlood flood-opacity="0.161"/>
      <feComposite operator="in" in2="blur"/>
      <feComposite in="SourceGraphic"/>
    </filter>
  </defs>
  <g id="Group_1" data-name="Group 1" transform="translate(-245 -522)">
    <g transform="matrix(1, 0, 0, 1, 245, 522)" filter="url(#Ellipse_1)">
      <ellipse id="Ellipse_1-2" data-name="Ellipse 1" cx="38" cy="37.5" rx="38" ry="37.5" transform="translate(9 6)" fill="#00c3d5"/>
    </g>
    <g id="mic_black_24dp" transform="translate(269.044 542.125)">
      <path id="Path_1" data-name="Path 1" d="M0,0H46.126V46.126H0Z" fill="none"/>
      <path id="Path_2" data-name="Path 2" d="M18.453,25.063A5.742,5.742,0,0,0,24.2,19.3l.019-11.532a5.766,5.766,0,0,0-11.532,0V19.3A5.758,5.758,0,0,0,18.453,25.063ZM28.64,19.3a9.972,9.972,0,0,1-10.186,9.8A9.972,9.972,0,0,1,8.267,19.3H5c0,6.554,5.228,11.974,11.532,12.915v6.3h3.844v-6.3c6.3-.923,11.532-6.342,11.532-12.915Z" transform="translate(4.61 1.844)" fill="#fff"/>
    </g>
  </g>
</svg>
